<?xml version="1.0" standalone="no"?><!DOCTYPE svg PUBLIC "-//W3C//DTD SVG 1.1//EN" "http://www.w3.org/Graphics/SVG/1.1/DTD/svg11.dtd"><svg height="1024" legacy-metrics="false" node-id="1" sillyvg="true" template-height="1024" template-width="1024" version="1.1" viewBox="0 0 1024 1024" width="1024" xmlns="http://www.w3.org/2000/svg" xmlns:xlink="http://www.w3.org/1999/xlink"><defs node-id="63"><linearGradient gradientUnits="userSpaceOnUse" id="SVGID_1_" node-id="33" x1="238.0957" x2="238.0957" y1="521.0695" y2="458.524"><stop offset="0" stop-color="#f2f2f2"></stop><stop offset="1" stop-color="#d8d8d8"></stop></linearGradient><linearGradient gradientUnits="userSpaceOnUse" id="SVGID_2_" node-id="37" x1="150.5361" x2="150.5361" y1="600.6317" y2="495.8376"><stop offset="0" stop-color="#f2f2f2"></stop><stop offset="1" stop-color="#d8d8d8"></stop></linearGradient><linearGradient gradientUnits="userSpaceOnUse" id="SVGID_3_" node-id="41" x1="806.0202" x2="806.0202" y1="592.336" y2="549.9448"><stop offset="0" stop-color="#f2f2f2"></stop><stop offset="1" stop-color="#d8d8d8"></stop></linearGradient><linearGradient gradientUnits="userSpaceOnUse" id="SVGID_4_" node-id="45" x1="789.8092" x2="789.8092" y1="824.3029" y2="753.277"><stop offset="0" stop-color="#f2f2f2"></stop><stop offset="1" stop-color="#d8d8d8"></stop></linearGradient><linearGradient gradientUnits="userSpaceOnUse" id="SVGID_5_" node-id="49" x1="843.9536" x2="843.9536" y1="601.2402" y2="572.04"><stop offset="0" stop-color="#f2f2f2"></stop><stop offset="1" stop-color="#d8d8d8"></stop></linearGradient></defs><path d="M 0.00 0.00 L 1024.00 0.00 L 1024.00 1024.00 L 0.00 1024.00 Z" fill="#f2f2f2" fill-rule="nonzero" node-id="96" stroke="none" target-height="1024" target-width="1024" target-x="0" target-y="0"></path><g node-id="178"><g node-id="179"><path d="M 612.30 775.50 C 605.80 775.50 600.60 770.20 600.60 763.80 L 600.60 755.40 C 600.60 751.70 598.10 748.60 594.60 747.70 L 382.80 695.20 C 369.40 692.00 359.90 680.00 359.90 666.10 L 359.90 354.80 C 359.90 342.50 352.60 331.60 341.20 326.80 L 314.20 315.60 C 308.20 313.10 305.40 306.30 307.90 300.30 C 310.40 294.30 317.20 291.50 323.20 294.00 L 350.20 305.20 C 370.30 313.60 383.30 333.00 383.30 354.80 L 383.30 666.00 C 383.30 669.00 385.40 671.60 388.30 672.30 L 600.10 724.80 C 614.20 728.20 624.00 740.70 624.00 755.30 L 624.00 763.70 C 624.10 770.20 618.80 775.50 612.30 775.50 Z" fill="#dddddd" fill-rule="nonzero" group-id="1,2" node-id="102" stroke="none" target-height="482.4082" target-width="317.00824" target-x="306.99176" target-y="293.0918"></path></g><path d="M 630.10 800.10 C 630.10 808.44 623.34 815.20 615.00 815.20 C 606.66 815.20 599.90 808.44 599.90 800.10 C 599.90 791.76 606.66 785.00 615.00 785.00 C 623.34 785.00 630.10 791.76 630.10 800.10 Z" fill="#afafaf" fill-rule="nonzero" group-id="1" node-id="105" stroke="none" target-height="30.200012" target-width="30.199951" target-x="599.9" target-y="785"></path><path d="M 608.90 785.00 L 614.60 785.00 L 614.60 815.10 L 608.90 815.10 Z" fill="#afafaf" fill-rule="nonzero" group-id="1" node-id="107" stroke="none" target-height="30.099976" target-width="5.699951" target-x="608.9" target-y="785"></path><path d="M 624.10 800.10 C 624.10 808.44 617.34 815.20 609.00 815.20 C 600.66 815.20 593.90 808.44 593.90 800.10 C 593.90 791.76 600.66 785.00 609.00 785.00 C 617.34 785.00 624.10 791.76 624.10 800.10 Z" fill="#dddddd" fill-rule="nonzero" group-id="1" node-id="109" stroke="none" target-height="30.200012" target-width="30.199951" target-x="593.9" target-y="785"></path><path d="M 385.30 731.60 C 385.30 739.94 378.54 746.70 370.20 746.70 C 361.86 746.70 355.10 739.94 355.10 731.60 C 355.10 723.26 361.86 716.50 370.20 716.50 C 378.54 716.50 385.30 723.26 385.30 731.60 Z" fill="#afafaf" fill-rule="nonzero" group-id="1" node-id="111" stroke="none" target-height="30.200012" target-width="30.199982" target-x="355.1" target-y="716.5"></path><path d="M 364.20 716.50 L 369.90 716.50 L 369.90 746.60 L 364.20 746.60 Z" fill="#afafaf" fill-rule="nonzero" group-id="1" node-id="113" stroke="none" target-height="30.099976" target-width="5.6999817" target-x="364.2" target-y="716.5"></path><path d="M 379.30 731.60 C 379.30 739.94 372.54 746.70 364.20 746.70 C 355.86 746.70 349.10 739.94 349.10 731.60 C 349.10 723.26 355.86 716.50 364.20 716.50 C 372.54 716.50 379.30 723.26 379.30 731.60 Z" fill="#dddddd" fill-rule="nonzero" group-id="1" node-id="115" stroke="none" target-height="30.200012" target-width="30.199982" target-x="349.1" target-y="716.5"></path><path d="M 707.70 717.90 C 701.20 717.90 696.00 712.60 696.00 706.20 L 696.00 697.80 C 696.00 694.10 693.50 691.00 690.00 690.10 L 478.30 637.60 C 464.90 634.40 455.40 622.40 455.40 608.50 L 455.40 297.30 C 455.40 285.00 448.10 274.10 436.70 269.30 L 409.70 258.10 C 403.70 255.60 400.90 248.80 403.40 242.80 C 405.90 236.80 412.70 234.00 418.70 236.50 L 445.70 247.70 C 465.80 256.10 478.80 275.50 478.80 297.30 L 478.80 608.40 C 478.80 611.40 480.90 614.00 483.80 614.70 L 695.50 667.20 C 709.60 670.60 719.40 683.10 719.40 697.70 L 719.40 706.10 C 719.40 712.70 714.20 717.90 707.70 717.90 Z" fill="#dddddd" fill-rule="nonzero" group-id="1,3" node-id="119" stroke="none" target-height="482.30826" target-width="316.9082" target-x="402.49182" target-y="235.59177"></path><path d="M 725.40 742.60 C 725.40 750.94 718.64 757.70 710.30 757.70 C 701.96 757.70 695.20 750.94 695.20 742.60 C 695.20 734.26 701.96 727.50 710.30 727.50 C 718.64 727.50 725.40 734.26 725.40 742.60 Z" fill="#afafaf" fill-rule="nonzero" group-id="1" node-id="122" stroke="none" target-height="30.200012" target-width="30.200012" target-x="695.2" target-y="727.5"></path><path d="M 704.30 727.50 L 710.00 727.50 L 710.00 757.60 L 704.30 757.60 Z" fill="#afafaf" fill-rule="nonzero" group-id="1" node-id="124" stroke="none" target-height="30.099976" target-width="5.700012" target-x="704.3" target-y="727.5"></path><path d="M 719.40 742.60 C 719.40 750.94 712.64 757.70 704.30 757.70 C 695.96 757.70 689.20 750.94 689.20 742.60 C 689.20 734.26 695.96 727.50 704.30 727.50 C 712.64 727.50 719.40 734.26 719.40 742.60 Z" fill="#dddddd" fill-rule="nonzero" group-id="1" node-id="126" stroke="none" target-height="30.200012" target-width="30.200012" target-x="689.2" target-y="727.5"></path><path d="M 651.70 599.70 L 343.40 406.00 L 499.80 330.20 L 751.20 512.20 Z" fill="#dddddd" fill-rule="nonzero" group-id="1" node-id="128" stroke="none" target-height="269.5" target-width="407.80002" target-x="343.4" target-y="330.2"></path><path d="M 498.00 510.20 L 343.40 406.00 L 499.80 330.20 L 499.80 330.20 Z" fill="#afafaf" fill-rule="nonzero" group-id="1" node-id="130" stroke="none" target-height="180" target-width="156.4" target-x="343.4" target-y="330.2"></path><path d="M 751.20 621.40 L 652.80 724.00 L 652.60 598.30 L 751.20 512.20 Z" fill="#f9f9f9" fill-rule="nonzero" group-id="1" node-id="132" stroke="none" target-height="211.79999" target-width="98.60004" target-x="652.6" target-y="512.2"></path><path d="M 551.10 532.50 L 605.70 565.00 L 598.50 577.10 L 476.30 504.30 L 483.50 492.20 L 536.80 523.90 L 556.20 491.20 L 518.90 469.00 L 526.00 457.00 L 616.60 510.90 L 609.50 522.90 L 570.50 499.70 L 551.10 532.50 Z M 578.90 452.90 C 560.90 456.10 537.90 456.70 517.60 454.00 L 517.10 437.40 C 536.60 441.40 557.30 441.60 574.40 439.10 L 578.90 452.90 Z M 664.70 466.50 L 646.60 496.80 L 632.70 488.50 L 643.50 470.40 L 547.60 413.30 L 535.00 434.50 L 521.70 426.60 L 541.60 393.20 L 596.90 426.20 C 597.80 420.50 598.60 413.90 599.20 408.60 L 615.70 413.10 C 615.30 420.10 614.40 429.40 613.30 435.90 L 664.70 466.50 Z M 622.50 514.30 C 616.90 502.00 603.60 479.00 593.60 463.20 L 607.50 458.90 C 617.40 473.80 631.40 496.30 638.00 509.00 L 622.50 514.30 Z" fill="#afafaf" fill-rule="nonzero" group-id="1,4" node-id="136" stroke="none" target-height="183.89996" target-width="188.40002" target-x="476.3" target-y="393.2"></path><path d="M 652.80 724.00 L 344.00 648.40 L 344.00 404.80 L 652.60 598.30 Z" fill="#ffffff" fill-rule="nonzero" group-id="1" node-id="139" stroke="none" target-height="319.2" target-width="308.8" target-x="344" target-y="404.8"></path><path d="M 670.10 511.20 C 665.00 511.10 662.10 510.90 661.90 510.90 L 662.20 506.20 C 662.20 506.20 665.20 506.40 670.10 506.50 L 670.10 511.20 Z" fill="#bcbcbc" fill-rule="nonzero" group-id="1,5" node-id="143" stroke="none" target-height="5" target-width="8.199951" target-x="661.9" target-y="506.2"></path><path d="M 676.50 511.30 L 676.50 506.60 C 681.80 506.60 687.20 506.40 692.50 506.10 L 692.80 510.80 C 687.40 511.10 681.90 511.30 676.50 511.30 Z M 699.30 510.40 L 698.90 505.70 C 704.30 505.30 709.70 504.70 714.80 504.00 L 715.40 508.60 C 710.20 509.40 704.80 509.90 699.30 510.40 Z M 721.90 507.70 L 721.20 503.10 C 726.60 502.20 731.90 501.20 736.80 500.00 L 737.90 504.60 C 732.80 505.80 727.40 506.80 721.90 507.70 Z M 744.20 502.90 L 743.00 498.40 C 748.30 496.90 753.40 495.30 758.10 493.40 L 759.80 497.80 C 754.90 499.70 749.70 501.40 744.20 502.90 Z M 765.80 495.20 L 763.90 490.90 C 768.90 488.60 773.60 486.10 777.70 483.40 L 780.30 487.30 C 775.90 490.20 771.00 492.90 765.80 495.20 Z M 785.60 483.50 L 782.70 479.80 C 783.30 479.40 783.80 478.90 784.30 478.50 C 779.50 478.20 776.00 477.10 773.80 475.30 L 776.70 471.70 C 778.00 472.80 781.00 474.00 788.10 474.00 C 788.50 474.00 789.00 474.00 789.40 474.00 C 791.00 472.40 792.50 470.80 793.80 469.10 L 797.40 472.10 C 794.20 476.10 790.20 480.00 785.60 483.50 Z M 797.60 478.10 L 797.10 473.40 C 798.60 473.20 800.20 473.00 801.90 472.80 C 805.40 472.30 809.00 471.60 812.60 470.70 L 813.70 475.30 C 810.00 476.20 806.20 477.00 802.50 477.50 C 800.80 477.70 799.20 477.90 797.60 478.10 Z M 820.10 473.50 L 818.70 469.00 C 823.60 467.50 828.60 465.70 833.50 463.50 L 835.40 467.80 C 830.30 470.10 825.10 472.00 820.10 473.50 Z M 775.80 468.20 L 771.20 467.10 C 772.50 461.50 778.30 456.00 781.70 453.30 L 784.70 456.90 C 779.90 461.00 776.50 465.20 775.80 468.20 Z M 801.50 466.60 L 797.60 464.10 C 797.80 463.80 798.00 463.40 798.20 463.10 C 802.50 456.20 803.60 452.50 803.90 450.50 L 808.60 451.10 C 808.20 454.60 806.10 459.40 802.30 465.60 C 801.90 465.90 801.70 466.20 801.50 466.60 Z M 841.30 465.10 L 839.20 460.90 C 843.80 458.60 848.50 456.10 853.10 453.20 L 855.50 457.20 C 850.90 460.10 846.10 462.70 841.30 465.10 Z M 861.10 453.70 L 858.50 449.80 C 862.80 447.00 867.20 443.90 871.50 440.60 L 874.30 444.30 C 870.00 447.60 865.50 450.80 861.10 453.70 Z M 789.70 453.30 L 787.10 449.40 C 792.90 445.60 798.30 443.50 802.10 443.50 C 802.10 443.50 802.10 443.50 802.10 443.50 C 802.60 443.50 803.20 443.50 803.60 443.60 L 802.80 448.20 C 802.60 448.20 802.30 448.10 802.10 448.10 C 799.40 448.10 794.60 450.10 789.70 453.30 Z M 879.50 440.20 L 876.60 436.50 C 880.60 433.20 884.70 429.80 888.70 426.10 L 891.90 429.60 C 887.80 433.40 883.60 436.90 879.50 440.20 Z M 896.60 425.20 L 893.40 421.80 C 897.20 418.20 901.00 414.40 904.70 410.50 L 908.10 413.70 C 904.30 417.70 900.50 421.60 896.60 425.20 Z M 912.60 409.10 L 909.20 405.90 C 912.80 402.00 916.40 398.00 919.80 393.90 L 923.40 396.90 C 919.80 401.00 916.20 405.10 912.60 409.10 Z M 927.50 391.90 L 923.90 388.90 C 927.30 384.70 930.70 380.50 933.80 376.30 L 937.60 379.10 C 934.30 383.40 931.00 387.70 927.50 391.90 Z" fill="#bcbcbc" fill-rule="nonzero" group-id="1,5" node-id="145" stroke="none" target-height="135" target-width="261.09998" target-x="676.5" target-y="376.3"></path><path d="M 941.30 374.00 L 937.50 371.30 C 940.40 367.20 942.00 364.80 942.00 364.80 L 945.90 367.40 C 945.90 367.40 944.30 369.80 941.30 374.00 Z" fill="#bcbcbc" fill-rule="nonzero" group-id="1,5" node-id="147" stroke="none" target-height="9.200012" target-width="8.400024" target-x="937.5" target-y="364.8"></path><path d="M 171.40 516.30 C 171.40 516.30 181.80 459.20 225.80 458.60 C 269.80 458.00 304.80 521.10 304.80 521.10" fill="url(#SVGID_1_)" fill-rule="nonzero" group-id="1" node-id="150" stroke="none" target-height="62.49997" target-width="133.4" target-x="171.4" target-y="458.6"></path><path d="M 38.70 592.60 C 38.70 592.60 56.20 497.00 129.90 495.90 C 203.60 494.80 262.30 600.70 262.30 600.70" fill="url(#SVGID_2_)" fill-rule="nonzero" group-id="1" node-id="152" stroke="none" target-height="104.80002" target-width="223.59999" target-x="38.7" target-y="495.9"></path><path d="M 760.80 589.10 C 760.80 589.10 767.90 550.40 797.70 550.00 C 827.50 549.60 851.20 592.40 851.20 592.40" fill="url(#SVGID_3_)" fill-rule="nonzero" group-id="1" node-id="154" stroke="none" target-height="42.400024" target-width="90.400024" target-x="760.8" target-y="550"></path><path d="M 714.00 818.80 C 714.00 818.80 725.80 754.00 775.80 753.20 C 825.80 752.50 865.50 824.20 865.50 824.20" fill="url(#SVGID_4_)" fill-rule="nonzero" group-id="1" node-id="156" stroke="none" target-height="71" target-width="151.5" target-x="714" target-y="753.2"></path><path d="M 812.80 599.00 C 812.80 599.00 817.70 572.40 838.20 572.00 C 858.70 571.70 875.10 601.20 875.10 601.20" fill="url(#SVGID_5_)" fill-rule="nonzero" group-id="1" node-id="158" stroke="none" target-height="29.200012" target-width="62.299988" target-x="812.8" target-y="572"></path><path d="M 597.10 220.10 L 587.40 220.10 L 587.40 210.40 C 587.40 208.30 585.70 206.60 583.60 206.60 C 581.50 206.60 579.80 208.30 579.80 210.40 L 579.80 220.10 L 570.10 220.10 C 568.00 220.10 566.30 221.80 566.30 223.90 C 566.30 226.00 568.00 227.70 570.10 227.70 L 579.80 227.70 L 579.80 237.40 C 579.80 239.50 581.50 241.20 583.60 241.20 C 585.70 241.20 587.40 239.50 587.40 237.40 L 587.40 227.70 L 597.10 227.70 C 599.20 227.70 600.90 226.00 600.90 223.90 C 601.00 221.80 599.30 220.10 597.10 220.10 Z" fill="#ffffff" fill-rule="nonzero" group-id="1" node-id="160" stroke="none" target-height="34.59999" target-width="34.600037" target-x="566.3" target-y="206.6"></path><path d="M 499.50 199.40 L 505.30 176.40 L 511.00 199.40 L 527.30 205.10 L 511.00 210.80 L 505.30 233.70 L 499.50 210.80 L 483.20 205.10 Z" fill="#ffffff" fill-rule="nonzero" group-id="1" node-id="162" stroke="none" target-height="57.300003" target-width="44.099976" target-x="483.2" target-y="176.4"></path><path d="M 585.80 288.80 L 593.20 259.10 L 600.60 288.80 L 621.70 296.20 L 600.60 303.60 L 593.20 333.20 L 585.80 303.60 L 564.70 296.20 Z" fill="#ffffff" fill-rule="nonzero" group-id="1" node-id="164" stroke="none" target-height="74.100006" target-width="57" target-x="564.7" target-y="259.1"></path><path d="M 706.20 266.80 L 700.00 266.80 L 700.00 260.60 C 700.00 259.20 698.90 258.10 697.50 258.10 C 696.10 258.10 695.00 259.20 695.00 260.60 L 695.00 266.80 L 688.80 266.80 C 687.40 266.80 686.30 267.90 686.30 269.30 C 686.30 270.70 687.40 271.80 688.80 271.80 L 695.00 271.80 L 695.00 278.00 C 695.00 279.40 696.10 280.50 697.50 280.50 C 698.90 280.50 700.00 279.40 700.00 278.00 L 700.00 271.80 L 706.20 271.80 C 707.60 271.80 708.70 270.70 708.70 269.30 C 708.70 267.90 707.60 266.80 706.20 266.80 Z" fill="#ffffff" fill-rule="nonzero" group-id="1" node-id="166" stroke="none" target-height="22.399994" target-width="22.400024" target-x="686.3" target-y="258.1"></path><path d="M 643.50 253.50 L 647.20 238.70 L 650.90 253.50 L 661.30 257.20 L 650.90 260.80 L 647.20 275.60 L 643.50 260.80 L 633.00 257.20 Z" fill="#ffffff" fill-rule="nonzero" group-id="1" node-id="168" stroke="none" target-height="36.90001" target-width="28.299988" target-x="633" target-y="238.7"></path><path d="M 698.90 310.90 L 703.70 291.90 L 708.40 310.90 L 722.00 315.70 L 708.40 320.40 L 703.70 339.50 L 698.90 320.40 L 685.30 315.70 Z" fill="#ffffff" fill-rule="nonzero" group-id="1" node-id="170" stroke="none" target-height="47.600006" target-width="36.700012" target-x="685.3" target-y="291.9"></path><path d="M 263.10 383.20 L 256.90 383.20 L 256.90 377.00 C 256.90 375.60 255.80 374.50 254.40 374.50 C 253.00 374.50 251.90 375.60 251.90 377.00 L 251.90 383.20 L 245.70 383.20 C 244.30 383.20 243.20 384.30 243.20 385.70 C 243.20 387.10 244.30 388.20 245.70 388.20 L 251.90 388.20 L 251.90 394.40 C 251.90 395.80 253.00 396.90 254.40 396.90 C 255.80 396.90 256.90 395.80 256.90 394.40 L 256.90 388.20 L 263.10 388.20 C 264.50 388.20 265.60 387.10 265.60 385.70 C 265.60 384.30 264.50 383.20 263.10 383.20 Z" fill="#ffffff" fill-rule="nonzero" group-id="1" node-id="172" stroke="none" target-height="22.399994" target-width="22.40001" target-x="243.2" target-y="374.5"></path><path d="M 200.40 369.90 L 204.10 355.20 L 207.80 369.90 L 218.30 373.60 L 207.80 377.30 L 204.10 392.00 L 200.40 377.30 L 189.90 373.60 Z" fill="#ffffff" fill-rule="nonzero" group-id="1" node-id="174" stroke="none" target-height="36.799988" target-width="28.40001" target-x="189.9" target-y="355.2"></path><path d="M 255.80 427.40 L 260.60 408.30 L 265.40 427.40 L 278.90 432.10 L 265.40 436.90 L 260.60 455.90 L 255.80 436.90 L 242.30 432.10 Z" fill="#ffffff" fill-rule="nonzero" group-id="1" node-id="176" stroke="none" target-height="47.600006" target-width="36.59999" target-x="242.3" target-y="408.3"></path></g></svg>