<?xml version="1.0" standalone="no"?><!DOCTYPE svg PUBLIC "-//W3C//DTD SVG 1.1//EN" "http://www.w3.org/Graphics/SVG/1.1/DTD/svg11.dtd"><svg height="1024" legacy-metrics="false" node-id="1" sillyvg="true" template-height="1024" template-width="1024" version="1.1" viewBox="0 0 1024 1024" width="1024" xmlns="http://www.w3.org/2000/svg" xmlns:xlink="http://www.w3.org/1999/xlink"><defs node-id="66"><linearGradient gradientUnits="objectBoundingBox" id="linearGradient-1" node-id="5" x1="0.49614564" x2="0.5063883" y1="-0.16281228" y2="1.593112"><stop offset="0" stop-color="#ffffff" stop-opacity="0"></stop><stop offset="1" stop-color="#8ee2f4"></stop></linearGradient><linearGradient gradientUnits="objectBoundingBox" id="linearGradient-2" node-id="8" x1="-0.0011325673" x2="1.0004997" y1="0.2256101" y2="1.007409"><stop offset="0" stop-color="#90e3f5"></stop><stop offset="1" stop-color="#65c8de"></stop></linearGradient><linearGradient gradientUnits="objectBoundingBox" id="linearGradient-3" node-id="11" x1="-0.030025713" x2="1.4146363" y1="0.7503539" y2="0.779289"><stop offset="0" stop-color="#ffffff"></stop><stop offset="1" stop-color="#bcf3ff"></stop></linearGradient><linearGradient gradientUnits="objectBoundingBox" id="linearGradient-4" node-id="14" x1="-0.04229412" x2="1.0591495" y1="0.92884564" y2="0.92884535"><stop offset="0" stop-color="#65c8de"></stop><stop offset="1" stop-color="#d2f7ff"></stop></linearGradient><linearGradient gradientUnits="objectBoundingBox" id="linearGradient-5" node-id="17" x1="-0.030025713" x2="1.4146363" y1="0.7499139" y2="0.77879816"><stop offset="0" stop-color="#ffffff"></stop><stop offset="1" stop-color="#bcf3ff"></stop></linearGradient><linearGradient gradientUnits="objectBoundingBox" id="linearGradient-6" node-id="20" x1="-0.0011325673" x2="1.0004997" y1="0.23078592" y2="0.9978378"><stop offset="0" stop-color="#90e3f5"></stop><stop offset="1" stop-color="#65c8de"></stop></linearGradient><linearGradient gradientUnits="objectBoundingBox" id="linearGradient-7" node-id="23" x1="-0.0011325673" x2="1.0004997" y1="0.23078592" y2="0.9978378"><stop offset="0" stop-color="#90e3f5"></stop><stop offset="1" stop-color="#65c8de"></stop></linearGradient><linearGradient gradientUnits="objectBoundingBox" id="linearGradient-8" node-id="26" x1="0.5" x2="1.0038348" y1="0" y2="1.3073974"><stop offset="0" stop-color="#ffffff"></stop><stop offset="1" stop-color="#d2f7ff"></stop></linearGradient><linearGradient gradientUnits="objectBoundingBox" id="linearGradient-9" node-id="29" x1="-0.0011325673" x2="1.0004997" y1="0.23078592" y2="0.9978378"><stop offset="0" stop-color="#90e3f5"></stop><stop offset="1" stop-color="#65c8de"></stop></linearGradient><linearGradient gradientUnits="objectBoundingBox" id="linearGradient-10" node-id="32" x1="-0.0011325673" x2="1.0004997" y1="0.23078592" y2="0.9978378"><stop offset="0" stop-color="#90e3f5"></stop><stop offset="1" stop-color="#65c8de"></stop></linearGradient></defs><g node-id="172"><path d="M 496.00 783.00 L 508.46 782.70 L 520.68 781.85 L 532.68 780.46 L 544.47 778.53 L 556.07 776.08 L 567.62 773.08 L 578.90 769.61 L 589.91 765.67 L 600.69 761.26 L 611.22 756.37 L 621.56 751.00 L 631.59 745.23 L 641.31 739.05 L 650.73 732.46 L 659.87 725.44 L 668.70 718.03 L 677.16 710.27 L 685.27 702.16 L 693.03 693.70 L 700.44 684.87 L 707.46 675.73 L 714.05 666.31 L 720.23 656.59 L 726.00 646.56 L 731.37 636.22 L 736.26 625.69 L 740.67 614.91 L 744.61 603.90 L 748.08 592.62 L 751.08 581.07 L 753.53 569.47 L 755.46 557.68 L 756.85 545.68 L 757.70 533.46 L 758.00 521.00 L 757.70 508.54 L 756.85 496.32 L 755.46 484.32 L 753.53 472.53 L 751.08 460.93 L 748.08 449.38 L 744.61 438.10 L 740.67 427.09 L 736.26 416.31 L 731.37 405.78 L 726.00 395.44 L 720.23 385.41 L 714.05 375.69 L 707.46 366.27 L 700.44 357.13 L 693.03 348.30 L 685.27 339.84 L 677.16 331.73 L 668.70 323.97 L 659.87 316.56 L 650.73 309.54 L 641.31 302.95 L 631.59 296.77 L 621.56 291.00 L 611.22 285.63 L 600.69 280.74 L 589.91 276.33 L 578.90 272.39 L 567.62 268.92 L 556.07 265.92 L 544.47 263.47 L 532.68 261.54 L 520.68 260.15 L 508.46 259.30 L 496.00 259.00 L 483.54 259.30 L 471.32 260.15 L 459.32 261.54 L 447.53 263.47 L 435.93 265.92 L 424.38 268.92 L 413.10 272.39 L 402.09 276.33 L 391.31 280.74 L 380.78 285.63 L 370.44 291.00 L 360.41 296.77 L 350.69 302.95 L 341.27 309.54 L 332.13 316.56 L 323.30 323.97 L 314.84 331.73 L 306.73 339.84 L 298.97 348.30 L 291.56 357.13 L 284.54 366.27 L 277.95 375.69 L 271.77 385.41 L 266.00 395.44 L 260.63 405.78 L 255.74 416.31 L 251.33 427.09 L 247.39 438.10 L 243.92 449.38 L 240.92 460.93 L 238.47 472.53 L 236.54 484.32 L 235.15 496.32 L 234.30 508.54 L 234.00 521.00 L 234.30 533.46 L 235.15 545.68 L 236.54 557.68 L 238.47 569.47 L 240.92 581.07 L 243.92 592.62 L 247.39 603.90 L 251.33 614.91 L 255.74 625.69 L 260.63 636.22 L 266.00 646.56 L 271.77 656.59 L 277.95 666.31 L 284.54 675.73 L 291.56 684.87 L 298.97 693.70 L 306.73 702.16 L 314.84 710.27 L 323.30 718.03 L 332.13 725.44 L 341.27 732.46 L 350.69 739.05 L 360.41 745.23 L 370.44 751.00 L 380.78 756.37 L 391.31 761.26 L 402.09 765.67 L 413.10 769.61 L 424.38 773.08 L 435.93 776.08 L 447.53 778.53 L 459.32 780.46 L 471.32 781.85 L 483.54 782.70 L 496.00 783.00 Z" fill="url(#linearGradient-1)" fill-rule="nonzero" group-id="1" id="路径" node-id="37" stroke-linecap="butt" stroke-width="1" target-height="524" target-width="524" target-x="234" target-y="259"></path><path d="M 636.31 320.00 L 630.61 320.00 L 614.86 320.00 L 591.06 320.00 L 561.22 320.00 L 527.37 320.00 L 491.50 320.00 L 455.63 320.00 L 421.78 320.00 L 391.94 320.00 L 368.14 320.00 L 352.39 320.00 L 346.69 320.00 L 342.20 320.31 L 337.97 321.18 L 333.96 322.59 L 330.17 324.52 L 326.72 326.87 L 323.57 329.67 L 320.81 332.84 L 318.48 336.32 L 316.57 340.15 L 315.17 344.20 L 314.31 348.47 L 314.00 353.00 L 320.98 353.00 L 340.30 353.00 L 369.47 353.00 L 406.04 353.00 L 447.54 353.00 L 491.50 353.00 L 535.46 353.00 L 576.96 353.00 L 613.53 353.00 L 642.70 353.00 L 662.01 353.00 L 669.00 353.00 L 668.69 348.47 L 667.83 344.20 L 666.43 340.15 L 664.52 336.32 L 662.19 332.84 L 659.43 329.67 L 656.28 326.87 L 652.83 324.52 L 649.04 322.59 L 645.03 321.18 L 640.80 320.31 L 636.31 320.00 Z" fill="url(#linearGradient-2)" fill-rule="nonzero" group-id="1" id="路径" node-id="38" stroke-linecap="butt" stroke-width="1" target-height="33" target-width="355" target-x="314" target-y="320"></path><path d="M 314.00 351.00 L 320.98 351.00 L 340.30 351.00 L 369.47 351.00 L 406.04 351.00 L 447.54 351.00 L 491.50 351.00 L 535.46 351.00 L 576.96 351.00 L 613.53 351.00 L 642.70 351.00 L 662.01 351.00 L 669.00 351.00 L 669.00 357.30 L 669.00 374.59 L 669.00 400.41 L 669.00 432.33 L 669.00 467.91 L 669.00 504.72 L 669.00 540.30 L 669.00 572.22 L 669.00 598.05 L 669.00 615.33 L 669.00 621.63 L 668.77 626.16 L 668.12 630.54 L 667.05 634.81 L 665.55 638.99 L 663.66 643.00 L 661.40 646.78 L 658.76 650.35 L 655.73 653.71 L 652.37 656.75 L 648.80 659.39 L 645.03 661.65 L 641.02 663.55 L 636.85 665.04 L 632.58 666.12 L 628.19 666.77 L 623.68 667.00 L 617.52 667.00 L 600.64 667.00 L 575.41 667.00 L 544.23 667.00 L 509.47 667.00 L 473.53 667.00 L 438.77 667.00 L 407.59 667.00 L 382.36 667.00 L 365.48 667.00 L 359.33 667.00 L 354.81 666.77 L 350.42 666.12 L 346.15 665.04 L 341.98 663.55 L 337.97 661.65 L 334.20 659.39 L 330.63 656.75 L 327.28 653.71 L 324.24 650.35 L 321.60 646.78 L 319.34 643.00 L 317.45 638.99 L 315.95 634.81 L 314.88 630.54 L 314.23 626.16 L 314.00 621.63 L 314.00 615.33 L 314.00 598.05 L 314.00 572.22 L 314.00 540.30 L 314.00 504.72 L 314.00 467.91 L 314.00 432.33 L 314.00 400.41 L 314.00 374.59 L 314.00 357.30 L 314.00 351.00 Z" fill="url(#linearGradient-3)" fill-rule="nonzero" group-id="1" id="路径" node-id="39" stroke-linecap="butt" stroke-width="1" target-height="316" target-width="355" target-x="314" target-y="351"></path><path d="M 608.20 387.00 L 602.76 387.00 L 587.86 387.00 L 565.59 387.00 L 538.06 387.00 L 507.37 387.00 L 475.63 387.00 L 444.94 387.00 L 417.41 387.00 L 395.14 387.00 L 380.24 387.00 L 374.80 387.00 L 372.44 387.31 L 370.36 388.16 L 368.57 389.49 L 367.20 391.21 L 366.32 393.23 L 366.00 395.50 L 366.32 397.77 L 367.20 399.79 L 368.57 401.51 L 370.36 402.84 L 372.44 403.69 L 374.80 404.00 L 380.24 404.00 L 395.14 404.00 L 417.41 404.00 L 444.94 404.00 L 475.63 404.00 L 507.37 404.00 L 538.06 404.00 L 565.59 404.00 L 587.86 404.00 L 602.76 404.00 L 608.20 404.00 L 610.56 403.69 L 612.64 402.84 L 614.43 401.51 L 615.80 399.79 L 616.68 397.77 L 617.00 395.50 L 616.68 393.23 L 615.80 391.21 L 614.43 389.49 L 612.64 388.16 L 610.56 387.31 L 608.20 387.00 Z" fill="url(#linearGradient-4)" fill-rule="nonzero" group-id="1" id="路径" node-id="40" stroke-linecap="butt" stroke-width="1" target-height="17" target-width="251" target-x="366" target-y="387"></path><path d="M 608.20 461.00 L 602.76 461.00 L 587.86 461.00 L 565.59 461.00 L 538.06 461.00 L 507.37 461.00 L 475.63 461.00 L 444.94 461.00 L 417.41 461.00 L 395.14 461.00 L 380.24 461.00 L 374.80 461.00 L 372.44 461.31 L 370.36 462.16 L 368.57 463.49 L 367.20 465.21 L 366.32 467.23 L 366.00 469.50 L 366.32 471.77 L 367.20 473.79 L 368.57 475.51 L 370.36 476.84 L 372.44 477.69 L 374.80 478.00 L 380.24 478.00 L 395.14 478.00 L 417.41 478.00 L 444.94 478.00 L 475.63 478.00 L 507.37 478.00 L 538.06 478.00 L 565.59 478.00 L 587.86 478.00 L 602.76 478.00 L 608.20 478.00 L 610.56 477.69 L 612.64 476.84 L 614.43 475.51 L 615.80 473.79 L 616.68 471.77 L 617.00 469.50 L 616.68 467.23 L 615.80 465.21 L 614.43 463.49 L 612.64 462.16 L 610.56 461.31 L 608.20 461.00 Z" fill="url(#linearGradient-4)" fill-rule="nonzero" group-id="1" id="路径" node-id="41" stroke-linecap="butt" stroke-width="1" target-height="17" target-width="251" target-x="366" target-y="461"></path><path d="M 608.20 536.00 L 602.76 536.00 L 587.86 536.00 L 565.59 536.00 L 538.06 536.00 L 507.37 536.00 L 475.63 536.00 L 444.94 536.00 L 417.41 536.00 L 395.14 536.00 L 380.24 536.00 L 374.80 536.00 L 372.44 536.31 L 370.36 537.16 L 368.57 538.49 L 367.20 540.21 L 366.32 542.23 L 366.00 544.50 L 366.32 546.77 L 367.20 548.79 L 368.57 550.51 L 370.36 551.84 L 372.44 552.69 L 374.80 553.00 L 380.24 553.00 L 395.14 553.00 L 417.41 553.00 L 444.94 553.00 L 475.63 553.00 L 507.37 553.00 L 538.06 553.00 L 565.59 553.00 L 587.86 553.00 L 602.76 553.00 L 608.20 553.00 L 610.56 552.69 L 612.64 551.84 L 614.43 550.51 L 615.80 548.79 L 616.68 546.77 L 617.00 544.50 L 616.68 542.23 L 615.80 540.21 L 614.43 538.49 L 612.64 537.16 L 610.56 536.31 L 608.20 536.00 Z" fill="url(#linearGradient-4)" fill-rule="nonzero" group-id="1" id="路径" node-id="42" stroke-linecap="butt" stroke-width="1" target-height="17" target-width="251" target-x="366" target-y="536"></path><path d="M 608.20 611.00 L 602.76 611.00 L 587.86 611.00 L 565.59 611.00 L 538.06 611.00 L 507.37 611.00 L 475.63 611.00 L 444.94 611.00 L 417.41 611.00 L 395.14 611.00 L 380.24 611.00 L 374.80 611.00 L 372.44 611.31 L 370.36 612.16 L 368.57 613.49 L 367.20 615.21 L 366.32 617.23 L 366.00 619.50 L 366.32 621.77 L 367.20 623.79 L 368.57 625.51 L 370.36 626.84 L 372.44 627.69 L 374.80 628.00 L 380.24 628.00 L 395.14 628.00 L 417.41 628.00 L 444.94 628.00 L 475.63 628.00 L 507.37 628.00 L 538.06 628.00 L 565.59 628.00 L 587.86 628.00 L 602.76 628.00 L 608.20 628.00 L 610.56 627.69 L 612.64 626.84 L 614.43 625.51 L 615.80 623.79 L 616.68 621.77 L 617.00 619.50 L 616.68 617.23 L 615.80 615.21 L 614.43 613.49 L 612.64 612.16 L 610.56 611.31 L 608.20 611.00 Z" fill="url(#linearGradient-4)" fill-rule="nonzero" group-id="1" id="路径" node-id="43" stroke-linecap="butt" stroke-width="1" target-height="17" target-width="251" target-x="366" target-y="611"></path><path d="M 727.38 242.00 L 722.65 242.00 L 709.99 242.00 L 691.66 242.00 L 669.93 242.00 L 647.07 242.00 L 625.34 242.00 L 607.01 242.00 L 594.35 242.00 L 589.62 242.00 L 587.50 242.20 L 585.56 242.73 L 583.76 243.59 L 582.13 244.74 L 580.74 246.13 L 579.59 247.76 L 578.73 249.56 L 578.20 251.50 L 578.00 253.62 L 578.00 257.21 L 578.00 266.46 L 578.00 279.11 L 578.00 292.89 L 578.00 305.54 L 578.00 314.79 L 578.00 318.38 L 578.20 320.50 L 578.73 322.44 L 579.59 324.24 L 580.74 325.87 L 582.13 327.26 L 583.76 328.41 L 585.56 329.27 L 587.50 329.80 L 589.62 330.00 L 594.35 330.00 L 607.01 330.00 L 625.34 330.00 L 647.07 330.00 L 669.93 330.00 L 691.66 330.00 L 709.99 330.00 L 722.65 330.00 L 727.38 330.00 L 729.50 329.80 L 731.44 329.27 L 733.24 328.41 L 734.87 327.26 L 736.26 325.87 L 737.41 324.24 L 738.27 322.44 L 738.80 320.50 L 739.00 318.38 L 739.00 314.79 L 739.00 305.54 L 739.00 292.89 L 739.00 279.11 L 739.00 266.46 L 739.00 257.21 L 739.00 253.62 L 738.80 251.50 L 738.27 249.56 L 737.41 247.76 L 736.26 246.13 L 734.87 244.74 L 733.24 243.59 L 731.44 242.73 L 729.50 242.20 L 727.38 242.00 Z" fill="url(#linearGradient-5)" fill-rule="nonzero" group-id="1" id="路径" node-id="44" stroke-linecap="butt" stroke-width="1" target-height="88" target-width="161" target-x="578" target-y="242"></path><g node-id="173"><path d="M 612.23 299.00 L 614.64 298.77 L 616.85 298.16 L 618.90 297.16 L 620.76 295.82 L 622.33 294.21 L 623.65 292.31 L 624.63 290.22 L 625.23 287.97 L 625.46 285.50 L 625.23 283.03 L 624.63 280.78 L 623.65 278.69 L 622.33 276.79 L 620.76 275.18 L 618.90 273.84 L 616.85 272.84 L 614.64 272.23 L 612.23 272.00 L 609.82 272.23 L 607.60 272.84 L 605.55 273.84 L 603.70 275.18 L 602.12 276.79 L 600.81 278.69 L 599.83 280.78 L 599.23 283.03 L 599.00 285.50 L 599.23 287.97 L 599.83 290.22 L 600.81 292.31 L 602.12 294.21 L 603.70 295.82 L 605.55 297.16 L 607.60 298.16 L 609.82 298.77 L 612.23 299.00 Z" fill="#81d5e7" fill-rule="nonzero" group-id="1,2" node-id="140" stroke-linecap="butt" stroke-width="1" target-height="27" target-width="26.45581" target-x="599" target-y="272"></path><path d="M 659.50 299.00 L 661.91 298.77 L 664.12 298.16 L 666.18 297.16 L 668.03 295.82 L 669.61 294.21 L 670.92 292.31 L 671.90 290.22 L 672.50 287.97 L 672.73 285.50 L 672.50 283.03 L 671.90 280.78 L 670.92 278.69 L 669.61 276.79 L 668.03 275.18 L 666.18 273.84 L 664.12 272.84 L 661.91 272.23 L 659.50 272.00 L 657.09 272.23 L 654.88 272.84 L 652.82 273.84 L 650.97 275.18 L 649.39 276.79 L 648.08 278.69 L 647.10 280.78 L 646.50 283.03 L 646.27 285.50 L 646.50 287.97 L 647.10 290.22 L 648.08 292.31 L 649.39 294.21 L 650.97 295.82 L 652.82 297.16 L 654.88 298.16 L 657.09 298.77 L 659.50 299.00 Z" fill="#81d5e7" fill-rule="nonzero" group-id="1,2" node-id="142" stroke-linecap="butt" stroke-width="1" target-height="27" target-width="26.45581" target-x="646.2721" target-y="272"></path><path d="M 706.77 299.00 L 709.18 298.77 L 711.40 298.16 L 713.45 297.16 L 715.30 295.82 L 716.88 294.21 L 718.19 292.31 L 719.17 290.22 L 719.77 287.97 L 720.00 285.50 L 719.77 283.03 L 719.17 280.78 L 718.19 278.69 L 716.88 276.79 L 715.30 275.18 L 713.45 273.84 L 711.40 272.84 L 709.18 272.23 L 706.77 272.00 L 704.36 272.23 L 702.15 272.84 L 700.10 273.84 L 698.24 275.18 L 696.67 276.79 L 695.35 278.69 L 694.37 280.78 L 693.77 283.03 L 693.54 285.50 L 693.77 287.97 L 694.37 290.22 L 695.35 292.31 L 696.67 294.21 L 698.24 295.82 L 700.10 297.16 L 702.15 298.16 L 704.36 298.77 L 706.77 299.00 Z" fill="#81d5e7" fill-rule="nonzero" group-id="1,2" node-id="144" stroke-linecap="butt" stroke-width="1" target-height="27" target-width="26.45581" target-x="693.5442" target-y="272"></path></g><g node-id="174"><path d="M 671.03 616.48 L 669.16 618.54 L 664.34 623.85 L 657.76 631.11 L 650.58 639.02 L 644.00 646.28 L 639.18 651.59 L 637.31 653.65 L 640.57 656.60 L 649.30 664.52 L 661.95 675.99 L 676.94 689.59 L 692.71 703.90 L 707.71 717.50 L 720.35 728.97 L 729.08 736.89 L 732.34 739.85 L 734.21 737.79 L 739.03 732.48 L 745.61 725.22 L 752.79 717.31 L 759.37 710.05 L 764.19 704.74 L 766.06 702.68 L 762.80 699.72 L 754.07 691.80 L 741.42 680.33 L 726.43 666.73 L 710.66 652.42 L 695.66 638.83 L 683.02 627.36 L 674.29 619.43 L 671.03 616.48 Z" fill="url(#linearGradient-6)" fill-rule="nonzero" group-id="1,3" node-id="148" stroke-linecap="butt" stroke-width="1" target-height="123.37012" target-width="128.74774" target-x="637.31116" target-y="616.4769"></path></g><path d="M 706.00 554.50 L 705.66 564.22 L 704.70 573.67 L 703.14 582.87 L 700.98 591.85 L 698.22 600.70 L 694.94 609.23 L 691.14 617.46 L 686.82 625.41 L 681.98 633.08 L 676.72 640.37 L 671.01 647.28 L 664.85 653.85 L 658.28 660.01 L 651.37 665.72 L 644.08 670.98 L 636.41 675.82 L 628.46 680.14 L 620.23 683.94 L 611.70 687.22 L 602.85 689.98 L 593.87 692.14 L 584.67 693.70 L 575.22 694.66 L 565.50 695.00 L 555.78 694.66 L 546.33 693.70 L 537.13 692.14 L 528.15 689.98 L 519.30 687.22 L 510.77 683.94 L 502.54 680.14 L 494.59 675.82 L 486.92 670.98 L 479.63 665.72 L 472.72 660.01 L 466.15 653.85 L 459.99 647.28 L 454.28 640.37 L 449.02 633.08 L 444.18 625.41 L 439.86 617.46 L 436.06 609.23 L 432.78 600.70 L 430.02 591.85 L 427.86 582.87 L 426.30 573.67 L 425.34 564.22 L 425.00 554.50 L 425.34 544.78 L 426.30 535.33 L 427.86 526.13 L 430.02 517.15 L 432.78 508.30 L 436.06 499.77 L 439.86 491.54 L 444.18 483.59 L 449.02 475.92 L 454.28 468.63 L 459.99 461.72 L 466.15 455.15 L 472.72 448.99 L 479.63 443.28 L 486.92 438.02 L 494.59 433.18 L 502.54 428.86 L 510.77 425.06 L 519.30 421.78 L 528.15 419.02 L 537.13 416.86 L 546.33 415.30 L 555.78 414.34 L 565.50 414.00 L 575.22 414.34 L 584.67 415.30 L 593.87 416.86 L 602.85 419.02 L 611.70 421.78 L 620.23 425.06 L 628.46 428.86 L 636.41 433.18 L 644.08 438.02 L 651.37 443.28 L 658.28 448.99 L 664.85 455.15 L 671.01 461.72 L 676.72 468.63 L 681.98 475.92 L 686.82 483.59 L 691.14 491.54 L 694.94 499.77 L 698.22 508.30 L 700.98 517.15 L 703.14 526.13 L 704.70 535.33 L 705.66 544.78 L 706.00 554.50 Z M 684.45 554.50 L 684.16 562.73 L 683.35 570.73 L 682.03 578.52 L 680.20 586.12 L 677.86 593.62 L 675.09 600.84 L 671.87 607.81 L 668.21 614.54 L 664.12 621.03 L 659.66 627.20 L 654.83 633.05 L 649.61 638.61 L 644.05 643.83 L 638.20 648.66 L 632.03 653.12 L 625.54 657.21 L 618.81 660.87 L 611.84 664.09 L 604.62 666.86 L 597.12 669.20 L 589.52 671.03 L 581.73 672.35 L 573.73 673.16 L 565.50 673.45 L 557.27 673.16 L 549.27 672.35 L 541.48 671.03 L 533.88 669.20 L 526.38 666.86 L 519.16 664.09 L 512.19 660.87 L 505.46 657.21 L 498.97 653.12 L 492.80 648.66 L 486.95 643.83 L 481.39 638.61 L 476.17 633.05 L 471.34 627.20 L 466.88 621.03 L 462.79 614.54 L 459.13 607.81 L 455.91 600.84 L 453.14 593.62 L 450.80 586.12 L 448.97 578.52 L 447.65 570.73 L 446.84 562.73 L 446.55 554.50 L 446.84 546.27 L 447.65 538.27 L 448.97 530.48 L 450.80 522.88 L 453.14 515.38 L 455.91 508.16 L 459.13 501.19 L 462.79 494.46 L 466.88 487.97 L 471.34 481.81 L 476.17 475.95 L 481.39 470.39 L 486.95 465.18 L 492.80 460.34 L 498.97 455.88 L 505.46 451.79 L 512.19 448.13 L 519.16 444.91 L 526.38 442.14 L 533.88 439.80 L 541.48 437.97 L 549.27 436.65 L 557.27 435.84 L 565.50 435.55 L 573.73 435.84 L 581.73 436.65 L 589.52 437.97 L 597.12 439.80 L 604.62 442.14 L 611.84 444.91 L 618.81 448.13 L 625.54 451.79 L 632.03 455.88 L 638.20 460.34 L 644.05 465.18 L 649.61 470.39 L 654.83 475.95 L 659.66 481.81 L 664.12 487.97 L 668.21 494.46 L 671.87 501.19 L 675.09 508.16 L 677.86 515.38 L 680.20 522.88 L 682.03 530.48 L 683.35 538.27 L 684.16 546.27 L 684.45 554.50 Z" fill="url(#linearGradient-7)" fill-rule="evenodd" group-id="1" id="形状" node-id="51" stroke-linecap="butt" stroke-width="1" target-height="281" target-width="281" target-x="425" target-y="414"></path><path d="M 565.00 675.00 L 573.23 674.71 L 581.24 673.90 L 589.03 672.58 L 596.63 670.75 L 604.13 668.41 L 611.36 665.63 L 618.33 662.41 L 625.06 658.75 L 631.56 654.66 L 637.73 650.20 L 643.59 645.36 L 649.15 640.15 L 654.36 634.59 L 659.20 628.73 L 663.66 622.56 L 667.75 616.06 L 671.41 609.33 L 674.63 602.36 L 677.41 595.13 L 679.75 587.63 L 681.58 580.03 L 682.90 572.24 L 683.71 564.23 L 684.00 556.00 L 683.71 547.77 L 682.90 539.76 L 681.58 531.97 L 679.75 524.36 L 677.41 516.87 L 674.63 509.64 L 671.41 502.67 L 667.75 495.94 L 663.66 489.44 L 659.20 483.27 L 654.36 477.41 L 649.15 471.85 L 643.59 466.64 L 637.73 461.80 L 631.56 457.34 L 625.06 453.25 L 618.33 449.59 L 611.36 446.37 L 604.13 443.59 L 596.63 441.25 L 589.03 439.42 L 581.24 438.10 L 573.23 437.29 L 565.00 437.00 L 556.77 437.29 L 548.76 438.10 L 540.97 439.42 L 533.36 441.25 L 525.87 443.59 L 518.64 446.37 L 511.67 449.59 L 504.94 453.25 L 498.44 457.34 L 492.27 461.80 L 486.41 466.64 L 480.85 471.85 L 475.64 477.41 L 470.80 483.27 L 466.34 489.44 L 462.25 495.94 L 458.59 502.67 L 455.37 509.64 L 452.59 516.87 L 450.25 524.36 L 448.42 531.97 L 447.10 539.76 L 446.29 547.77 L 446.00 556.00 L 446.29 564.23 L 447.10 572.24 L 448.42 580.03 L 450.25 587.63 L 452.59 595.13 L 455.37 602.36 L 458.59 609.33 L 462.25 616.06 L 466.34 622.56 L 470.80 628.73 L 475.64 634.59 L 480.85 640.15 L 486.41 645.36 L 492.27 650.20 L 498.44 654.66 L 504.94 658.75 L 511.67 662.41 L 518.64 665.63 L 525.87 668.41 L 533.36 670.75 L 540.97 672.58 L 548.76 673.90 L 556.77 674.71 L 565.00 675.00 Z" fill="url(#linearGradient-8)" fill-opacity="0.9" fill-rule="nonzero" group-id="1" id="路径" node-id="52" stroke-linecap="butt" stroke-width="1" target-height="238" target-width="238" target-x="446" target-y="437"></path><path d="M 472.81 702.69 L 473.53 701.04 L 474.61 699.92 L 475.99 699.23 L 477.50 699.00 L 479.01 699.23 L 480.39 699.92 L 481.47 701.04 L 482.19 702.69 L 482.60 704.41 L 483.60 708.52 L 484.78 713.43 L 485.77 717.53 L 486.19 719.26 L 486.68 720.50 L 487.47 721.53 L 488.50 722.32 L 489.74 722.81 L 491.47 723.23 L 495.57 724.22 L 500.48 725.40 L 504.59 726.40 L 506.31 726.81 L 507.96 727.53 L 509.08 728.61 L 509.77 729.99 L 510.00 731.50 L 509.77 733.01 L 509.08 734.39 L 507.96 735.47 L 506.31 736.19 L 504.59 736.60 L 500.48 737.60 L 495.57 738.78 L 491.47 739.77 L 489.74 740.19 L 488.50 740.68 L 487.47 741.47 L 486.68 742.50 L 486.19 743.74 L 485.77 745.47 L 484.78 749.57 L 483.60 754.48 L 482.60 758.59 L 482.19 760.31 L 481.47 761.95 L 480.39 763.08 L 479.01 763.77 L 477.50 764.00 L 475.99 763.77 L 474.61 763.08 L 473.53 761.96 L 472.81 760.31 L 472.40 758.59 L 471.40 754.48 L 470.22 749.57 L 469.23 745.47 L 468.81 743.74 L 468.32 742.50 L 467.53 741.47 L 466.50 740.68 L 465.26 740.19 L 463.53 739.77 L 459.43 738.78 L 454.52 737.60 L 450.41 736.60 L 448.69 736.19 L 447.04 735.47 L 445.92 734.39 L 445.23 733.01 L 445.00 731.50 L 445.23 729.99 L 445.92 728.61 L 447.04 727.53 L 448.69 726.81 L 450.41 726.40 L 454.52 725.40 L 459.43 724.22 L 463.53 723.23 L 465.26 722.81 L 466.50 722.32 L 467.53 721.53 L 468.32 720.50 L 468.81 719.26 L 469.23 717.53 L 470.22 713.43 L 471.40 708.52 L 472.40 704.41 L 472.81 702.69 Z" fill="url(#linearGradient-7)" fill-rule="nonzero" group-id="1" id="路径" node-id="53" stroke-linecap="butt" stroke-width="1" target-height="65" target-width="65" target-x="445" target-y="699"></path><path d="M 282.81 264.69 L 283.53 263.04 L 284.61 261.92 L 285.99 261.23 L 287.50 261.00 L 289.01 261.23 L 290.39 261.92 L 291.47 263.04 L 292.19 264.69 L 292.60 266.41 L 293.60 270.52 L 294.78 275.43 L 295.77 279.53 L 296.19 281.26 L 296.68 282.50 L 297.47 283.53 L 298.50 284.32 L 299.74 284.81 L 301.47 285.23 L 305.57 286.22 L 310.48 287.40 L 314.59 288.40 L 316.31 288.81 L 317.96 289.53 L 319.08 290.61 L 319.77 291.99 L 320.00 293.50 L 319.77 295.01 L 319.08 296.39 L 317.96 297.47 L 316.31 298.19 L 314.59 298.60 L 310.48 299.60 L 305.57 300.78 L 301.47 301.77 L 299.74 302.19 L 298.50 302.68 L 297.47 303.47 L 296.68 304.50 L 296.19 305.74 L 295.77 307.47 L 294.78 311.57 L 293.60 316.48 L 292.60 320.59 L 292.19 322.31 L 291.47 323.96 L 290.39 325.08 L 289.01 325.77 L 287.50 326.00 L 285.99 325.77 L 284.61 325.08 L 283.53 323.96 L 282.81 322.31 L 282.40 320.59 L 281.40 316.48 L 280.22 311.57 L 279.23 307.47 L 278.81 305.74 L 278.32 304.50 L 277.53 303.47 L 276.50 302.68 L 275.26 302.19 L 273.53 301.77 L 269.43 300.78 L 264.52 299.60 L 260.41 298.60 L 258.69 298.19 L 257.04 297.47 L 255.92 296.39 L 255.23 295.01 L 255.00 293.50 L 255.23 291.99 L 255.92 290.61 L 257.04 289.53 L 258.69 288.81 L 260.41 288.40 L 264.52 287.40 L 269.43 286.22 L 273.53 285.23 L 275.26 284.81 L 276.50 284.32 L 277.53 283.53 L 278.32 282.50 L 278.81 281.26 L 279.23 279.53 L 280.22 275.43 L 281.40 270.52 L 282.40 266.41 L 282.81 264.69 Z" fill="url(#linearGradient-7)" fill-rule="nonzero" group-id="1" id="路径" node-id="54" stroke-linecap="butt" stroke-width="1" target-height="65" target-width="65" target-x="255" target-y="261"></path><path d="M 485.00 268.00 L 487.14 267.71 L 489.04 266.91 L 490.66 265.66 L 491.91 264.04 L 492.71 262.14 L 493.00 260.00 L 492.71 257.86 L 491.91 255.96 L 490.66 254.34 L 489.04 253.09 L 487.14 252.29 L 485.00 252.00 L 482.86 252.29 L 480.96 253.09 L 479.34 254.34 L 478.09 255.96 L 477.29 257.86 L 477.00 260.00 L 477.29 262.14 L 478.09 264.04 L 479.34 265.66 L 480.96 266.91 L 482.86 267.71 L 485.00 268.00 Z M 485.00 274.00 L 487.56 273.76 L 489.90 273.12 L 492.07 272.09 L 494.03 270.70 L 495.70 269.03 L 497.09 267.07 L 498.12 264.90 L 498.76 262.56 L 499.00 260.00 L 498.76 257.44 L 498.12 255.10 L 497.09 252.93 L 495.70 250.97 L 494.03 249.30 L 492.07 247.91 L 489.90 246.88 L 487.56 246.24 L 485.00 246.00 L 482.44 246.24 L 480.10 246.88 L 477.93 247.91 L 475.97 249.30 L 474.30 250.97 L 472.91 252.93 L 471.88 255.10 L 471.24 257.44 L 471.00 260.00 L 471.24 262.56 L 471.88 264.90 L 472.91 267.07 L 474.30 269.03 L 475.97 270.70 L 477.93 272.09 L 480.10 273.12 L 482.44 273.76 L 485.00 274.00 Z" fill="url(#linearGradient-7)" fill-rule="evenodd" group-id="1" id="形状" node-id="55" stroke-linecap="butt" stroke-width="1" target-height="28" target-width="28" target-x="471" target-y="246"></path><path d="M 733.46 487.38 L 733.36 485.90 L 733.75 484.61 L 734.54 483.53 L 735.65 482.76 L 736.95 482.40 L 738.42 482.54 L 740.50 483.12 L 745.46 484.52 L 751.38 486.18 L 756.34 487.57 L 758.42 488.16 L 759.75 488.81 L 760.68 489.79 L 761.22 491.02 L 761.33 492.36 L 760.99 493.67 L 760.14 494.87 L 758.59 496.38 L 754.90 499.98 L 750.50 504.28 L 746.81 507.88 L 745.26 509.39 L 744.04 510.21 L 742.73 510.52 L 741.39 510.37 L 740.17 509.80 L 739.21 508.85 L 738.60 507.51 L 738.06 505.42 L 736.79 500.42 L 735.27 494.46 L 734.00 489.47 L 733.46 487.38 Z" fill="url(#linearGradient-9)" fill-rule="nonzero" group-id="1,4" node-id="157" stroke-linecap="butt" stroke-width="1" target-height="28.118103" target-width="27.969421" target-x="733.36066" target-y="482.40076"></path><path d="M 264.51 453.03 L 265.99 452.93 L 267.28 453.32 L 268.36 454.12 L 269.13 455.22 L 269.48 456.53 L 269.35 458.00 L 268.76 460.08 L 267.36 465.04 L 265.69 470.96 L 264.29 475.92 L 263.70 478.00 L 263.05 479.32 L 262.06 480.24 L 260.83 480.78 L 259.49 480.90 L 258.19 480.55 L 256.98 479.70 L 255.48 478.15 L 251.88 474.46 L 247.59 470.05 L 244.00 466.36 L 242.49 464.81 L 241.67 463.58 L 241.36 462.27 L 241.50 460.93 L 242.08 459.72 L 243.03 458.76 L 244.37 458.14 L 246.47 457.61 L 251.46 456.34 L 257.42 454.83 L 262.42 453.56 L 264.51 453.03 Z" fill="url(#linearGradient-10)" fill-rule="nonzero" group-id="1,5" node-id="161" stroke-linecap="butt" stroke-width="1" target-height="27.96106" target-width="28.12555" target-x="241.35855" target-y="452.9341"></path><path d="M 645.97 729.42 L 647.45 729.32 L 648.74 729.71 L 649.82 730.51 L 650.59 731.61 L 650.94 732.91 L 650.81 734.38 L 650.22 736.46 L 648.82 741.42 L 647.15 747.34 L 645.74 752.30 L 645.16 754.38 L 644.51 755.71 L 643.52 756.63 L 642.29 757.17 L 640.95 757.28 L 639.65 756.94 L 638.44 756.09 L 636.94 754.54 L 633.34 750.84 L 629.05 746.44 L 625.46 742.74 L 623.95 741.19 L 623.13 739.97 L 622.82 738.65 L 622.96 737.32 L 623.54 736.10 L 624.49 735.14 L 625.83 734.53 L 627.93 734.00 L 632.92 732.73 L 638.88 731.22 L 643.88 729.95 L 645.97 729.42 Z" fill="url(#linearGradient-10)" fill-rule="nonzero" group-id="1,6" node-id="165" stroke-linecap="butt" stroke-width="1" target-height="27.96106" target-width="28.12561" target-x="622.8182" target-y="729.3214"></path><path d="M 752.00 384.00 L 754.14 383.71 L 756.04 382.91 L 757.66 381.66 L 758.91 380.04 L 759.71 378.14 L 760.00 376.00 L 759.71 373.86 L 758.91 371.96 L 757.66 370.34 L 756.04 369.09 L 754.14 368.29 L 752.00 368.00 L 749.86 368.29 L 747.96 369.09 L 746.34 370.34 L 745.09 371.96 L 744.29 373.86 L 744.00 376.00 L 744.29 378.14 L 745.09 380.04 L 746.34 381.66 L 747.96 382.91 L 749.86 383.71 L 752.00 384.00 Z M 752.00 390.00 L 754.56 389.76 L 756.90 389.12 L 759.07 388.09 L 761.03 386.70 L 762.70 385.03 L 764.09 383.07 L 765.12 380.90 L 765.76 378.56 L 766.00 376.00 L 765.76 373.44 L 765.12 371.10 L 764.09 368.93 L 762.70 366.97 L 761.03 365.30 L 759.07 363.91 L 756.90 362.88 L 754.56 362.24 L 752.00 362.00 L 749.44 362.24 L 747.10 362.88 L 744.93 363.91 L 742.97 365.30 L 741.30 366.97 L 739.91 368.93 L 738.88 371.10 L 738.24 373.44 L 738.00 376.00 L 738.24 378.56 L 738.88 380.90 L 739.91 383.07 L 741.30 385.03 L 742.97 386.70 L 744.93 388.09 L 747.10 389.12 L 749.44 389.76 L 752.00 390.00 Z" fill="url(#linearGradient-7)" fill-rule="evenodd" group-id="1" id="形状" node-id="62" stroke-linecap="butt" stroke-width="1" target-height="28" target-width="28" target-x="738" target-y="362"></path><path d="M 732.34 739.85 L 734.20 737.79 L 739.02 732.48 L 745.61 725.22 L 752.78 717.31 L 759.37 710.05 L 764.18 704.74 L 766.05 702.68 L 766.85 703.40 L 768.59 704.98 L 770.34 706.57 L 771.13 707.29 L 773.44 709.68 L 775.37 712.30 L 776.96 715.15 L 778.16 718.19 L 778.95 721.34 L 779.33 724.64 L 779.27 727.97 L 778.79 731.19 L 777.89 734.32 L 776.59 737.32 L 774.92 740.11 L 772.86 742.72 L 770.46 745.02 L 767.85 746.96 L 764.99 748.54 L 761.96 749.74 L 758.80 750.53 L 755.50 750.92 L 752.18 750.86 L 748.96 750.38 L 745.82 749.48 L 742.82 748.18 L 740.03 746.51 L 737.43 744.44 L 736.63 743.72 L 734.89 742.14 L 733.14 740.56 L 732.35 739.84 Z" fill="#65c8de" fill-rule="nonzero" group-id="1,7" node-id="170" stroke-linecap="butt" stroke-width="1" target-height="48.235962" target-width="46.9942" target-x="732.3367" target-y="702.68164"></path></g></svg>