<?xml version="1.0" standalone="no"?><!DOCTYPE svg PUBLIC "-//W3C//DTD SVG 1.1//EN" "http://www.w3.org/Graphics/SVG/1.1/DTD/svg11.dtd"><svg height="300" legacy-metrics="false" node-id="1" sillyvg="true" template-height="300" template-width="500" version="1.1" viewBox="0 0 500 300" width="500" xmlns="http://www.w3.org/2000/svg" xmlns:xlink="http://www.w3.org/1999/xlink"><defs node-id="38"><linearGradient gradientUnits="userSpaceOnUse" id="未命名的渐变_50" node-id="5" x1="250" x2="250" y1="284.22" y2="191.22"><stop offset="0" stop-color="#fff9ef" stop-opacity="0"></stop><stop offset="0.17" stop-color="#fef8ef" stop-opacity="0.02"></stop><stop offset="0.32" stop-color="#fbf5ee" stop-opacity="0.06"></stop><stop offset="0.46" stop-color="#f5f1ec" stop-opacity="0.14"></stop><stop offset="0.6" stop-color="#edebea" stop-opacity="0.26"></stop><stop offset="0.74" stop-color="#e3e2e7" stop-opacity="0.4"></stop><stop offset="0.87" stop-color="#d6d8e4" stop-opacity="0.58"></stop><stop offset="0.99" stop-color="#c8cde0" stop-opacity="0.79"></stop><stop offset="1" stop-color="#c7cce0" stop-opacity="0.8"></stop></linearGradient><linearGradient gradientUnits="userSpaceOnUse" id="未命名的渐变_35" node-id="15" x1="399.25998" x2="455.03998" y1="-429.54996" y2="-485.31998"><stop offset="0" stop-color="#fff9ef" stop-opacity="0"></stop><stop offset="0.17" stop-color="#fef8ef" stop-opacity="0.02"></stop><stop offset="0.32" stop-color="#fbf5ee" stop-opacity="0.06"></stop><stop offset="0.46" stop-color="#f5f1ec" stop-opacity="0.14"></stop><stop offset="0.6" stop-color="#edebea" stop-opacity="0.26"></stop><stop offset="0.74" stop-color="#e3e2e7" stop-opacity="0.4"></stop><stop offset="0.87" stop-color="#d6d8e4" stop-opacity="0.58"></stop><stop offset="0.99" stop-color="#c8cde0" stop-opacity="0.79"></stop><stop offset="1" stop-color="#c7cce0" stop-opacity="0.8"></stop></linearGradient><linearGradient gradientUnits="userSpaceOnUse" id="未命名的渐变_35-2" node-id="16" x1="677.8599" x2="733.63995" y1="-624.70996" y2="-680.4799"><stop offset="0" stop-color="#fff9ef" stop-opacity="0"></stop><stop offset="0.17" stop-color="#fef8ef" stop-opacity="0.02"></stop><stop offset="0.32" stop-color="#fbf5ee" stop-opacity="0.06"></stop><stop offset="0.46" stop-color="#f5f1ec" stop-opacity="0.14"></stop><stop offset="0.6" stop-color="#edebea" stop-opacity="0.26"></stop><stop offset="0.74" stop-color="#e3e2e7" stop-opacity="0.4"></stop><stop offset="0.87" stop-color="#d6d8e4" stop-opacity="0.58"></stop><stop offset="0.99" stop-color="#c8cde0" stop-opacity="0.79"></stop><stop offset="1" stop-color="#c7cce0" stop-opacity="0.8"></stop></linearGradient><linearGradient gradientUnits="userSpaceOnUse" id="未命名的渐变_35-3" node-id="17" x1="599.36993" x2="655.14996" y1="-728.64996" y2="-784.42993"><stop offset="0" stop-color="#fff9ef" stop-opacity="0"></stop><stop offset="0.17" stop-color="#fef8ef" stop-opacity="0.02"></stop><stop offset="0.32" stop-color="#fbf5ee" stop-opacity="0.06"></stop><stop offset="0.46" stop-color="#f5f1ec" stop-opacity="0.14"></stop><stop offset="0.6" stop-color="#edebea" stop-opacity="0.26"></stop><stop offset="0.74" stop-color="#e3e2e7" stop-opacity="0.4"></stop><stop offset="0.87" stop-color="#d6d8e4" stop-opacity="0.58"></stop><stop offset="0.99" stop-color="#c8cde0" stop-opacity="0.79"></stop><stop offset="1" stop-color="#c7cce0" stop-opacity="0.8"></stop></linearGradient><linearGradient gradientUnits="userSpaceOnUse" id="未命名的渐变_25" node-id="18" x1="300" x2="300" y1="82.68" y2="214.51"><stop offset="0" stop-color="#ffffff"></stop><stop offset="0.0000000000000002220446" stop-color="#e2e4ed"></stop><stop offset="0.25" stop-color="#dadde9"></stop><stop offset="1" stop-color="#c7cce0"></stop></linearGradient></defs><path d="M 396.00 237.72 C 396.00 263.40 330.63 284.22 250.00 284.22 C 169.37 284.22 104.00 263.40 104.00 237.72 C 104.00 212.04 169.37 191.22 250.00 191.22 C 330.63 191.22 396.00 212.04 396.00 237.72 Z" fill="url(#未命名的渐变_50)" fill-rule="nonzero" node-id="131" stroke="none" target-height="93" target-width="292" target-x="104" target-y="191.22"></path><path d="M 108.85 89.86 L 108.85 89.86 L 110.49 91.84 L 111.70 93.94 L 112.50 96.21 L 112.90 98.58 L 112.90 100.94 L 112.50 103.31 L 111.70 105.58 L 110.49 107.68 L 108.85 109.66 L 57.94 160.57 L 55.97 162.21 L 53.86 163.41 L 51.59 164.22 L 49.22 164.62 L 46.86 164.62 L 44.49 164.22 L 42.23 163.41 L 40.12 162.21 L 38.14 160.57 L 38.14 160.57 L 36.50 158.60 L 35.30 156.49 L 34.50 154.22 L 34.09 151.85 L 34.09 149.49 L 34.50 147.12 L 35.30 144.85 L 36.50 142.75 L 38.14 140.77 L 89.05 89.86 L 91.03 88.22 L 93.14 87.02 L 95.40 86.22 L 97.78 85.81 L 100.13 85.81 L 102.51 86.22 L 104.77 87.02 L 106.88 88.22 L 108.85 89.86 Z" fill="url(#未命名的渐变_35)" fill-rule="nonzero" node-id="133" stroke-linecap="butt" stroke-width="0.99999994" target-height="78.81137" target-width="78.811386" target-x="34.092743" target-y="85.81056"></path><path d="M 443.86 148.86 L 443.86 148.86 L 445.49 150.84 L 446.70 152.94 L 447.50 155.21 L 447.91 157.58 L 447.91 159.94 L 447.50 162.31 L 446.70 164.58 L 445.49 166.68 L 443.86 168.66 L 392.94 219.57 L 390.97 221.21 L 388.86 222.41 L 386.60 223.22 L 384.22 223.62 L 381.87 223.62 L 379.49 223.22 L 377.23 222.41 L 375.12 221.21 L 373.14 219.57 L 373.14 219.57 L 371.51 217.60 L 370.30 215.49 L 369.50 213.22 L 369.09 210.85 L 369.09 208.49 L 369.50 206.12 L 370.30 203.86 L 371.51 201.75 L 373.14 199.77 L 424.06 148.86 L 426.03 147.22 L 428.14 146.02 L 430.40 145.22 L 432.78 144.81 L 435.13 144.81 L 437.51 145.22 L 439.77 146.02 L 441.88 147.22 L 443.86 148.86 Z" fill="url(#未命名的渐变_35-2)" fill-rule="nonzero" node-id="135" stroke-linecap="butt" stroke-width="0.99999994" target-height="78.81143" target-width="78.8114" target-x="369.09418" target-y="144.81061"></path><path d="M 461.86 19.86 L 461.86 19.86 L 463.50 21.84 L 464.70 23.94 L 465.50 26.21 L 465.91 28.58 L 465.91 30.94 L 465.50 33.31 L 464.70 35.58 L 463.50 37.69 L 461.86 39.66 L 410.95 90.57 L 408.97 92.21 L 406.87 93.42 L 404.60 94.22 L 402.23 94.62 L 399.87 94.62 L 397.50 94.22 L 395.23 93.42 L 393.12 92.21 L 391.15 90.57 L 391.15 90.57 L 389.51 88.60 L 388.31 86.49 L 387.50 84.22 L 387.10 81.85 L 387.10 79.49 L 387.50 77.12 L 388.31 74.86 L 389.51 72.75 L 391.15 70.77 L 442.06 19.86 L 444.04 18.22 L 446.14 17.02 L 448.41 16.22 L 450.78 15.81 L 453.14 15.81 L 455.51 16.22 L 457.78 17.02 L 459.88 18.22 L 461.86 19.86 Z" fill="url(#未命名的渐变_35-3)" fill-rule="nonzero" node-id="137" stroke-linecap="butt" stroke-width="0.99999994" target-height="78.81137" target-width="78.8114" target-x="387.09888" target-y="15.811768"></path><path d="M 240.67 95.21 C 240.67 95.21 255.00 59.84 269.44 65.00 C 283.88 70.16 269.44 95.23 269.44 95.23" fill="none" node-id="139" stroke="#afb7ce" stroke-linecap="butt" stroke-width="1" target-height="30.715141" target-width="35.18773" target-x="240.67" target-y="64.51486"></path><path d="M 194.71 82.68 L 300.59 82.68 L 290.00 86.68 L 294.71 93.26 L 194.71 93.26 L 199.41 86.84 L 194.71 82.68 Z" fill="#c7cce0" fill-rule="nonzero" node-id="141" stroke="none" target-height="10.580002" target-width="105.87999" target-x="194.71" target-y="82.68"></path><path d="M 290.00 86.68 L 294.71 93.26 L 294.71 93.26 L 299.41 214.51 L 310.00 200.38 L 300.59 82.68 L 290.00 86.68 Z" fill="url(#未命名的渐变_25)" fill-rule="nonzero" node-id="143" stroke="none" target-height="131.82999" target-width="20" target-x="290" target-y="82.68"></path><path d="M 299.41 214.51 L 190.00 214.51 L 194.71 93.26 L 294.71 93.26 L 299.41 214.51 Z" fill="#e2e4ed" fill-rule="nonzero" node-id="145" stroke="none" target-height="121.24999" target-width="109.41" target-x="190" target-y="93.26"></path><path d="M 194.71 82.68 L 196.36 91.01 L 199.41 86.84 L 194.71 82.68 Z" fill="#afb7ce" fill-rule="nonzero" node-id="147" stroke="none" target-height="8.330002" target-width="4.699997" target-x="194.71" target-y="82.68"></path><path d="M 230.00 101.50 C 230.00 102.80 228.95 103.85 227.65 103.85 C 226.35 103.85 225.30 102.80 225.30 101.50 C 225.30 100.20 226.35 99.15 227.65 99.15 C 228.95 99.15 230.00 100.20 230.00 101.50 Z" fill="#c7cce0" fill-rule="nonzero" node-id="149" stroke="none" target-height="4.699997" target-width="4.699997" target-x="225.3" target-y="99.15"></path><path d="M 262.94 101.50 C 262.94 102.80 261.89 103.85 260.59 103.85 C 259.29 103.85 258.24 102.80 258.24 101.50 C 258.24 100.20 259.29 99.15 260.59 99.15 C 261.89 99.15 262.94 100.20 262.94 101.50 Z" fill="#c7cce0" fill-rule="nonzero" node-id="151" stroke="none" target-height="4.699997" target-width="4.700012" target-x="258.24" target-y="99.15"></path><path d="M 227.65 101.50 C 227.65 101.50 238.83 56.18 255.30 62.07 C 271.77 67.96 260.59 101.50 260.59 101.50" fill="none" node-id="153" stroke="#afb7ce" stroke-linecap="butt" stroke-width="1" target-height="39.925903" target-width="36.64502" target-x="227.65" target-y="61.574097"></path></svg>